:FULLY-SPECIFIED
:FORCE-ALL-JOINTS-BE-3DOF
:DEGREES
306
root 9.09038 15.4222 -23.7985 13.5869 59.7672 17.4389
lfemur -16.2697 18.77 -18.169
ltibia 52.5809 0 0
lfoot -17.3449 -26.3399 0
ltoes 57.9635 0 0
rfemur -53.2288 -18.767 35.6506
rtibia 56.9475 0 0
rfoot 13.8345 12.588 0
rtoes 7.3189 0 0
lowerback 9.33344 -3.29284 -8.48521
upperback 4.99775 -4.88995 -4.04582
thorax 0.375819 -2.47776 0.93999
lowerneck -5.32377 -10.5728 -2.74465
upperneck -2.02133 -14.0167 10.492
head 1.30696 -6.89017 3.3614
lclavicle 8.28792e-14 1.99353e-14 0
lhumerus -42.3017 -41.9996 99.3842
lradius 59.3972 0 0
lwrist 21.0918 0 0
lhand 14.5036 11.8423 0
lfingers 7.12502 0 0
lthumb 39.3842 37.2504 0
rclavicle 8.28792e-14 1.99353e-14 0
rhumerus -38.6935 64.1746 -74.2126
rradius 79.6949 0 0
rwrist 4.856 0 0
rhand 1.92086 -5.87606 0
rfingers 7.12502 0 0
rthumb 27.3837 -753.452 0
307
root 9.04661 15.4426 -23.7798 12.984 58.2931 16.4243
lfemur -16.4349 19.1498 -18.0881
ltibia 52.1732 0 0
lfoot -17.9664 -25.419 0
ltoes 57.8477 0 0
rfemur -54.8038 -19.9354 36.43
rtibia 57.7096 0 0
rfoot 13.8492 15.1796 0
rtoes 0.1417 0 0
lowerback 9.52508 -3.17813 -8.4096
upperback 5.01408 -4.75513 -4.05391
thorax 0.268983 -2.40648 0.894255
lowerneck -5.43727 -10.4533 -2.48717
upperneck -2.48537 -13.8309 10.6197
head 1.1523 -6.80675 3.37705
lclavicle 7.22158e-14 1.32902e-14 0
lhumerus -42.6346 -42.6741 99.6685
lradius 59.1674 0 0
lwrist 20.7801 0 0
lhand 14.4062 11.6203 0
lfingers 7.12502 0 0
lthumb 39.2924 37.0553 0
rclavicle 7.22158e-14 1.32902e-14 0
rhumerus -31.4754 65.184 -67.2673
rradius 79.7066 0 0
rwrist 3.21204 0 0
rhand 5.09287 -5.12944 0
rfingers 7.12502 0 0
rthumb 30.4184 -752.245 0
308
root 9.00283 15.4629 -23.761 12.381 56.819 15.4097
lfemur -16.6002 19.5297 -18.0072
ltibia 51.7655 0 0
lfoot -18.5878 -24.498 0
ltoes 57.7318 0 0
rfemur -56.3788 -21.1038 37.2094
rtibia 58.4716 0 0
rfoot 13.8639 17.7712 0
rtoes -7.0355 0 0
lowerback 9.71672 -3.06342 -8.33398
upperback 5.03042 -4.62031 -4.06201
thorax 0.162147 -2.33519 0.84852
lowerneck -5.55077 -10.3337 -2.2297
upperneck -2.94942 -13.6451 10.7475
head 0.997645 -6.72332 3.39271
lclavicle 6.15523e-14 6.64509e-15 0
lhumerus -42.9675 -43.3486 99.9527
lradius 58.9375 0 0
lwrist 20.4684 0 0
lhand 14.3088 11.3982 0
lfingers 7.12502 0 0
lthumb 39.2006 36.8601 0
rclavicle 6.15523e-14 6.64509e-15 0
rhumerus -24.2572 66.1935 -60.3219
rradius 79.7183 0 0
rwrist 1.56809 0 0
rhand 8.26489 -4.38283 0
rfingers 7.12502 0 0
rthumb 33.4532 -751.038 0
309
root 8.95906 15.4833 -23.7423 11.7781 55.3449 14.3951
lfemur -16.7654 19.9095 -17.9263
ltibia 51.3578 0 0
lfoot -19.2093 -23.5771 0
ltoes 57.616 0 0
rfemur -57.9538 -22.2722 37.9888
rtibia 59.2337 0 0
rfoot 13.8786 20.3628 0
rtoes -14.2127 0 0
lowerback 9.90836 -2.94871 -8.25837
upperback 5.04675 -4.48549 -4.0701
thorax 0.0553108 -2.26391 0.802785
lowerneck -5.66427 -10.2142 -1.97222
upperneck -3.41346 -13.4593 10.8753
head 0.842986 -6.6399 3.40836
lclavicle 5.08889e-14 0 0
lhumerus -43.3004 -44.0231 100.237
lradius 58.7077 0 0
lwrist 20.1567 0 0
lhand 14.2114 11.1762 0
lfingers 7.12502 0 0
lthumb 39.1088 36.665 0
rclavicle 5.08889e-14 0 0
rhumerus -17.0391 67.2029 -53.3766
rradius 79.73 0 0
rwrist -0.0758576 0 0
rhand 11.4369 -3.63621 0
rfingers 7.12502 0 0
rthumb 36.4879 -749.831 0
310
root 8.92794 15.5057 -23.6993 11.6605 54.3165 13.9505
lfemur -16.6795 20.0963 -17.7813
ltibia 50.7654 0 0
lfoot -19.5518 -22.7297 0
ltoes 57.5068 0 0
rfemur -58.4453 -21.9944 36.7171
rtibia 59.486 0 0
rfoot 12.6681 18.8196 0
rtoes -14.4605 0 0
lowerback 9.90672 -2.74344 -7.96811
upperback 5.00571 -4.19723 -4.08036
thorax -0.0233815 -2.11476 0.608735
lowerneck -5.54626 -10.3362 -1.57337
upperneck -3.77362 -13.6058 10.807
head 0.679614 -6.73492 3.33554
lclavicle 3.95582e-14 -3.40774e-16 0
lhumerus -44.0177 -45.0935 101.15
lradius 58.74 0 0
lwrist 19.9286 0 0
lhand 14.3152 10.9979 0
lfingers 7.12502 0 0
lthumb 39.2066 36.458 0
rclavicle 3.95582e-14 -3.40774e-16 0
rhumerus -15.3445 61.2462 -53.6412
rradius 78.5207 0 0
rwrist -2.84134 0 0
rhand 9.4523 -5.56501 0
rfingers 7.12502 0 0
rthumb 34.5949 -752.106 0
311
root 8.89682 15.5281 -23.6562 11.5429 53.2881 13.506
lfemur -16.5937 20.2832 -17.6364
ltibia 50.173 0 0
lfoot -19.8943 -21.8824 0
ltoes 57.3975 0 0
rfemur -58.9369 -21.7165 35.4454
rtibia 59.7382 0 0
rfoot 11.4576 17.2765 0
rtoes -14.7084 0 0
lowerback 9.90507 -2.53818 -7.67785
upperback 4.96467 -3.90898 -4.09062
thorax -0.102074 -1.96561 0.414685
lowerneck -5.42825 -10.4583 -1.17453
upperneck -4.13378 -13.7522 10.7387
head 0.516241 -6.82993 3.26271
lclavicle 2.82274e-14 -6.81549e-16 0
lhumerus -44.7351 -46.164 102.064
lradius 58.7723 0 0
lwrist 19.7005 0 0
lhand 14.4191 10.8196 0
lfingers 7.12502 0 0
lthumb 39.3044 36.251 0
rclavicle 2.82274e-14 -6.81549e-16 0
rhumerus -13.65 55.2895 -53.9057
rradius 77.3113 0 0
rwrist -5.60681 0 0
rhand 7.46769 -7.49381 0
rfingers 7.12502 0 0
rthumb 32.7018 -754.381 0
312
root 8.8657 15.5505 -23.6132 11.4253 52.2597 13.0614
lfemur -16.5078 20.47 -17.4914
ltibia 49.5806 0 0
lfoot -20.2368 -21.035 0
ltoes 57.2883 0 0
rfemur -59.4284 -21.4387 34.1737
rtibia 59.9905 0 0
rfoot 10.2471 15.7333 0
rtoes -14.9562 0 0
lowerback 9.90343 -2.33291 -7.38759
upperback 4.92363 -3.62072 -4.10088
thorax -0.180766 -1.81646 0.220635
lowerneck -5.31024 -10.5803 -0.775683
upperneck -4.49394 -13.8987 10.6704
head 0.352869 -6.92495 3.18989
lclavicle 1.68967e-14 -1.02232e-15 0
lhumerus -45.4524 -47.2344 102.977
lradius 58.8046 0 0
lwrist 19.4724 0 0
lhand 14.5229 10.6413 0
lfingers 7.12502 0 0
lthumb 39.4022 36.044 0
rclavicle 1.68967e-14 -1.02232e-15 0
rhumerus -11.9554 49.3328 -54.1703
rradius 76.102 0 0
rwrist -8.37229 0 0
rhand 5.48309 -9.42261 0
rfingers 7.12502 0 0
rthumb 30.8088 -756.656 0
313
root 8.83457 15.5728 -23.5701 11.3077 51.2312 12.6169
lfemur -16.422 20.6568 -17.3464
ltibia 48.9882 0 0
lfoot -20.5793 -20.1877 0
ltoes 57.1791 0 0
rfemur -59.92 -21.1608 32.902
rtibia 60.2428 0 0
rfoot 9.03657 14.1901 0
rtoes -15.204 0 0
lowerback 9.90179 -2.12765 -7.09734
upperback 4.88259 -3.33246 -4.11113
thorax -0.259458 -1.66731 0.026585
lowerneck -5.19224 -10.7023 -0.376838
upperneck -4.8541 -14.0451 10.602
head 0.189497 -7.01996 3.11707
lclavicle 5.56599e-15 -1.3631e-15 0
lhumerus -46.1697 -48.3049 103.891
lradius 58.8369 0 0
lwrist 19.2442 0 0
lhand 14.6267 10.463 0
lfingers 7.12502 0 0
lthumb 39.5001 35.8371 0
rclavicle 5.56599e-15 -1.3631e-15 0
rhumerus -10.2608 43.3762 -54.4348
rradius 74.8926 0 0
rwrist -11.1378 0 0
rhand 3.49849 -11.3514 0
rfingers 7.12502 0 0
rthumb 28.9157 -758.931 0
314
root 8.80345 15.5952 -23.5271 11.1901 50.2028 12.1723
lfemur -16.3361 20.8436 -17.2014
ltibia 48.3958 0 0
lfoot -20.9218 -19.3403 0
ltoes 57.0699 0 0
rfemur -60.4115 -20.883 31.6303
rtibia 60.4951 0 0
rfoot 7.82606 12.6469 0
rtoes -15.4518 0 0
lowerback 9.90015 -1.92238 -6.80708
upperback 4.84155 -3.0442 -4.12139
thorax -0.33815 -1.51816 -0.167465
lowerneck -5.07423 -10.8243 0.0220079
upperneck -5.21426 -14.1916 10.5337
head 0.0261246 -7.11498 3.04425
lclavicle -5.76474e-15 -1.70387e-15 0
lhumerus -46.887 -49.3753 104.804
lradius 58.8692 0 0
lwrist 19.0161 0 0
lhand 14.7305 10.2847 0
lfingers 7.12502 0 0
lthumb 39.5979 35.6301 0
rclavicle -5.76474e-15 -1.70387e-15 0
rhumerus -8.56628 37.4195 -54.6994
rradius 73.6833 0 0
rwrist -13.9032 0 0
rhand 1.51389 -13.2802 0
rfingers 7.12502 0 0
rthumb 27.0227 -761.206 0
315
root 8.77233 15.6176 -23.484 11.0725 49.1744 11.7278
lfemur -16.2503 21.0305 -17.0565
ltibia 47.8034 0 0
lfoot -21.2643 -18.493 0
ltoes 56.9606 0 0
rfemur -60.9031 -20.6051 30.3586
rtibia 60.7473 0 0
rfoot 6.61556 11.1038 0
rtoes -15.6997 0 0
lowerback 9.8985 -1.71712 -6.51682
upperback 4.80051 -2.75595 -4.13165
thorax -0.416843 -1.36901 -0.361515
lowerneck -4.95622 -10.9464 0.420853
upperneck -5.57442 -14.338 10.4654
head -0.137248 -7.20999 2.97142
lclavicle -1.70955e-14 -2.04465e-15 0
lhumerus -47.6044 -50.4458 105.718
lradius 58.9015 0 0
lwrist 18.788 0 0
lhand 14.8344 10.1064 0
lfingers 7.12502 0 0
lthumb 39.6957 35.4231 0
rclavicle -1.70955e-14 -2.04465e-15 0
rhumerus -6.87171 31.4628 -54.9639
rradius 72.4739 0 0
rwrist -16.6687 0 0
rhand -0.470717 -15.209 0
rfingers 7.12502 0 0
rthumb 25.1296 -763.481 0
316
root 8.74121 15.64 -23.441 10.9549 48.146 11.2832
lfemur -16.1644 21.2173 -16.9115
ltibia 47.211 0 0
lfoot -21.6068 -17.6456 0
ltoes 56.8514 0 0
rfemur -61.3946 -20.3273 29.0869
rtibia 60.9996 0 0
rfoot 5.40505 9.56059 0
rtoes -15.9475 0 0
lowerback 9.89686 -1.51185 -6.22656
upperback 4.75947 -2.46769 -4.14191
thorax -0.495535 -1.21986 -0.555565
lowerneck -4.83821 -11.0684 0.819699
upperneck -5.93458 -14.4845 10.3971
head -0.30062 -7.30501 2.8986
lclavicle -2.84262e-14 -2.38542e-15 0
lhumerus -48.3217 -51.5162 106.631
lradius 58.9338 0 0
lwrist 18.5599 0 0
lhand 14.9382 9.92808 0
lfingers 7.12502 0 0
lthumb 39.7935 35.2161 0
rclavicle -2.84262e-14 -2.38542e-15 0
rhumerus -5.17715 25.5061 -55.2285
rradius 71.2646 0 0
rwrist -19.4342 0 0
rhand -2.45532 -17.1378 0
rfingers 7.12502 0 0
rthumb 23.2366 -765.756 0
317
root 8.72539 15.6507 -23.3637 10.7737 47.619 11.0406
lfemur -15.5836 20.9882 -16.4963
ltibia 46.5148 0 0
lfoot -21.5909 -17.3861 0
ltoes 57.1647 0 0
rfemur -60.3009 -19.2069 26.2026
rtibia 60.5172 0 0
rfoot 5.76375 7.70343 0
rtoes -11.6745 0 0
lowerback 9.7652 -1.36561 -6.02207
upperback 4.71881 -2.25276 -3.90181
thorax -0.474029 -1.11531 -0.442539
lowerneck -4.64167 -11.258 1.03804
upperneck -6.10444 -14.7337 10.0592
head -0.423054 -7.44281 2.77976
lclavicle -2.22994e-14 -2.74039e-15 0
lhumerus -48.89 -52.135 107.829
lradius 59.0446 0 0
lwrist 18.4536 0 0
lhand 14.9748 10.2409 0
lfingers 7.12502 0 0
lthumb 39.8279 35.5186 0
rclavicle -2.22994e-14 -2.74039e-15 0
rhumerus -5.08092 22.0066 -56.1465
rradius 72.1091 0 0
rwrist -20.2678 0 0
rhand -10.0437 -20.7807 0
rfingers 7.12502 0 0
rthumb 15.9272 -769.302 0
318
root 8.70958 15.6614 -23.2863 10.5924 47.0919 10.798
lfemur -15.0029 20.7591 -16.0812
ltibia 45.8185 0 0
lfoot -21.5749 -17.1267 0
ltoes 57.4781 0 0
rfemur -59.2072 -18.0866 23.3182
rtibia 60.0348 0 0
rfoot 6.12246 5.84627 0
rtoes -7.4015 0 0
lowerback 9.63354 -1.21936 -5.81757
upperback 4.67814 -2.03782 -3.66172
thorax -0.452523 -1.01077 -0.329513
lowerneck -4.44513 -11.4476 1.25637
upperneck -6.2743 -14.9828 9.72131
head -0.545489 -7.58062 2.66092
lclavicle -1.61725e-14 -3.09536e-15 0
lhumerus -49.4582 -52.7538 109.026
lradius 59.1554 0 0
lwrist 18.3472 0 0
lhand 15.0113 10.5537 0
lfingers 7.12502 0 0
lthumb 39.8623 35.8211 0
rclavicle -1.61725e-14 -3.09536e-15 0
rhumerus -4.9847 18.507 -57.0645
rradius 72.9535 0 0
rwrist -21.1014 0 0
rhand -17.6321 -24.4235 0
rfingers 7.12502 0 0
rthumb 8.6178 -772.849 0
